<svg width="170" height="34" viewBox="0 0 170 34" fill="none" xmlns="http://www.w3.org/2000/svg">
<path d="M38.7809 15.5127C38.7809 11.3985 37.1465 7.45275 34.2373 4.54356C31.3281 1.63437 27.3824 5.39515e-07 23.2682 0C19.154 -5.39514e-07 15.2083 1.63437 12.2991 4.54356C9.38989 7.45275 7.75552 11.3985 7.75552 15.5127H12.6033C14.2097 15.5127 15.4625 14.1665 16.0509 12.6717C16.4372 11.6903 17.0234 10.7884 17.7836 10.0281C19.2382 8.57352 21.2111 7.75634 23.2682 7.75634C25.3253 7.75634 27.2982 8.57352 28.7528 10.0281C30.2074 11.4827 31.0245 13.4556 31.0245 15.5127H38.7809Z" fill="url(#paint0_linear_75_10)"/>
<path d="M29.8445 21.4491C30.6241 19.567 31.0245 17.5498 31.0245 15.5127H38.7809C38.7809 24.0801 31.8356 31.0253 23.2682 31.0253C21.9265 31.0253 20.6245 30.855 19.3829 30.5348C20.0854 30.3538 20.7759 30.1233 21.4491 29.8445C23.3312 29.0649 25.0413 27.9223 26.4818 26.4818C27.9223 25.0413 29.065 23.3312 29.8445 21.4491Z" fill="url(#paint1_linear_75_10)"/>
<path d="M0 15.5126C-2.91433e-07 17.5498 0.401247 19.567 1.18083 21.4491C1.96042 23.3312 3.10307 25.0413 4.54356 26.4818C5.98404 27.9222 7.69415 29.0649 9.57623 29.8445C11.4583 30.6241 13.4755 31.0253 15.5127 31.0253C17.5498 31.0253 19.567 30.6241 21.4491 29.8445C23.3312 29.0649 25.0413 27.9223 26.4818 26.4818C27.9223 25.0413 29.065 23.3312 29.8445 21.4491C30.6241 19.567 31.0245 17.5498 31.0245 15.5127L26.1776 15.5126C24.5712 15.5126 23.3184 16.8588 22.73 18.3535C22.7133 18.3961 22.6961 18.4385 22.6786 18.4809C22.2888 19.4219 21.7175 20.277 20.9972 20.9972C20.277 21.7174 19.4219 22.2888 18.4809 22.6786C17.5399 23.0684 16.5313 23.269 15.5127 23.269C14.4941 23.269 13.4855 23.0684 12.5445 22.6786C11.6034 22.2888 10.7484 21.7174 10.0281 20.9972C9.30787 20.277 8.73655 19.4219 8.34676 18.4809C7.95696 17.5398 7.75552 16.5313 7.75552 15.5127L0 15.5126Z" fill="url(#paint2_linear_75_10)"/>
<path d="M0.00158691 15.5127C0.00158691 6.94524 6.94683 0 15.5142 0C16.8556 0 18.1572 0.170246 19.3987 0.490323C16.7348 1.17657 14.2774 2.56534 12.2991 4.54356C9.38989 7.45275 7.75552 11.3985 7.75552 15.5127H0.00158691Z" fill="url(#paint3_linear_75_10)"/>
<path d="M56.5328 4.656H58.9008V23.76H64.7888V26H56.5328V4.656ZM78.6575 24.4C77.3348 25.7227 75.6602 26.384 73.6335 26.384C71.6068 26.384 69.9215 25.7227 68.5775 24.4C67.2548 23.0773 66.5935 21.4133 66.5935 19.408C66.5935 17.3813 67.2548 15.7067 68.5775 14.384C69.9215 13.0613 71.6068 12.4 73.6335 12.4C75.6602 12.4 77.3348 13.0613 78.6575 14.384C80.0015 15.7067 80.6735 17.3813 80.6735 19.408C80.6735 21.4133 80.0015 23.0773 78.6575 24.4ZM76.9295 15.76C76.0335 14.8853 74.9348 14.448 73.6335 14.448C72.3322 14.448 71.2228 14.896 70.3055 15.792C69.4095 16.6667 68.9615 17.872 68.9615 19.408C68.9615 20.944 69.4202 22.1493 70.3375 23.024C71.2548 23.8987 72.3535 24.336 73.6335 24.336C74.9135 24.336 76.0122 23.8987 76.9295 23.024C77.8468 22.1493 78.3055 20.944 78.3055 19.408C78.3055 17.8507 77.8468 16.6347 76.9295 15.76ZM94.3828 14.608V12.72H96.6868V25.712C96.6868 28.0373 96.2601 29.776 95.4068 30.928C94.1908 32.5707 92.4201 33.392 90.0948 33.392C88.1321 33.392 86.5534 32.7947 85.3588 31.6C84.2068 30.448 83.6308 29.0187 83.6308 27.312H85.9028C85.9028 28.3787 86.2441 29.296 86.9268 30.064C87.6948 30.9173 88.7614 31.344 90.1268 31.344C91.7268 31.344 92.9001 30.7253 93.6468 29.488C94.1374 28.6987 94.3828 27.568 94.3828 26.096V24.144C93.2308 25.6373 91.7161 26.384 89.8388 26.384C88.0468 26.384 86.5214 25.7653 85.2628 24.528C84.0041 23.2907 83.3748 21.5627 83.3748 19.344C83.3748 17.168 83.9934 15.472 85.2308 14.256C86.4894 13.0187 88.0254 12.4 89.8388 12.4C91.7588 12.4 93.2734 13.136 94.3828 14.608ZM90.0948 14.448C88.8788 14.448 87.8441 14.8853 86.9908 15.76C86.1588 16.6133 85.7428 17.808 85.7428 19.344C85.7428 20.816 86.1268 22.0213 86.8948 22.96C87.6841 23.8773 88.7508 24.336 90.0948 24.336C91.4388 24.336 92.5054 23.856 93.2948 22.896C94.1054 21.936 94.5108 20.7627 94.5108 19.376C94.5108 17.7973 94.0628 16.5813 93.1668 15.728C92.2708 14.8747 91.2468 14.448 90.0948 14.448ZM112.283 24.4C110.96 25.7227 109.285 26.384 107.259 26.384C105.232 26.384 103.547 25.7227 102.203 24.4C100.88 23.0773 100.219 21.4133 100.219 19.408C100.219 17.3813 100.88 15.7067 102.203 14.384C103.547 13.0613 105.232 12.4 107.259 12.4C109.285 12.4 110.96 13.0613 112.283 14.384C113.627 15.7067 114.299 17.3813 114.299 19.408C114.299 21.4133 113.627 23.0773 112.283 24.4ZM110.555 15.76C109.659 14.8853 108.56 14.448 107.259 14.448C105.957 14.448 104.848 14.896 103.931 15.792C103.035 16.6667 102.587 17.872 102.587 19.408C102.587 20.944 103.045 22.1493 103.963 23.024C104.88 23.8987 105.979 24.336 107.259 24.336C108.539 24.336 109.637 23.8987 110.555 23.024C111.472 22.1493 111.931 20.944 111.931 19.408C111.931 17.8507 111.472 16.6347 110.555 15.76ZM122.504 14.832H120.2V26H117.896V14.832H116.488V12.72H117.896V7.92H120.2V12.72H122.504V14.832ZM124.58 33.488L128.868 24.752L122.756 12.72H125.38L130.084 22.224L134.404 12.72H136.964L127.14 33.488H124.58ZM141.698 24.144V33.488H139.394V12.72H141.698V14.576C142.872 13.1253 144.386 12.4 146.242 12.4C148.226 12.4 149.794 13.104 150.946 14.512C152.12 15.8987 152.706 17.5413 152.706 19.44C152.706 21.36 152.13 23.0027 150.978 24.368C149.826 25.712 148.28 26.384 146.338 26.384C144.397 26.384 142.85 25.6373 141.698 24.144ZM146.018 24.336C147.32 24.336 148.365 23.8667 149.154 22.928C149.944 21.968 150.338 20.8053 150.338 19.44C150.338 17.904 149.901 16.688 149.026 15.792C148.152 14.896 147.138 14.448 145.986 14.448C144.834 14.448 143.81 14.896 142.914 15.792C142.018 16.688 141.57 17.8933 141.57 19.408C141.57 20.7947 141.976 21.968 142.786 22.928C143.618 23.8667 144.696 24.336 146.018 24.336ZM166.094 21.552L168.014 22.608C167.566 23.4613 167.022 24.176 166.382 24.752C165.166 25.84 163.694 26.384 161.966 26.384C160.174 26.384 158.627 25.808 157.326 24.656C156.046 23.4827 155.406 21.744 155.406 19.44C155.406 17.4133 155.982 15.7387 157.134 14.416C158.307 13.072 159.875 12.4 161.838 12.4C164.057 12.4 165.731 13.2107 166.862 14.832C167.758 16.112 168.174 17.776 168.11 19.824H157.774C157.795 21.168 158.211 22.256 159.022 23.088C159.833 23.92 160.825 24.336 161.998 24.336C163.043 24.336 163.95 24.016 164.718 23.376C165.315 22.864 165.774 22.256 166.094 21.552ZM157.934 17.904H165.742C165.55 16.8587 165.091 16.0267 164.366 15.408C163.662 14.768 162.819 14.448 161.838 14.448C160.878 14.448 160.025 14.7787 159.278 15.44C158.553 16.08 158.105 16.9013 157.934 17.904Z" fill="white"/>
<defs>
<linearGradient id="paint0_linear_75_10" x1="-3.26511e-07" y1="9.65232" x2="38.855" y2="10.2365" gradientUnits="userSpaceOnUse">
<stop stop-color="#FF6B00"/>
<stop offset="1" stop-color="#DC3720"/>
</linearGradient>
<linearGradient id="paint1_linear_75_10" x1="-3.26511e-07" y1="9.65232" x2="38.855" y2="10.2365" gradientUnits="userSpaceOnUse">
<stop stop-color="#FF6B00"/>
<stop offset="1" stop-color="#DC3720"/>
</linearGradient>
<linearGradient id="paint2_linear_75_10" x1="-3.26511e-07" y1="9.65232" x2="38.855" y2="10.2365" gradientUnits="userSpaceOnUse">
<stop stop-color="#FF6B00"/>
<stop offset="1" stop-color="#DC3720"/>
</linearGradient>
<linearGradient id="paint3_linear_75_10" x1="-3.26511e-07" y1="9.65232" x2="38.855" y2="10.2365" gradientUnits="userSpaceOnUse">
<stop stop-color="#FF6B00"/>
<stop offset="1" stop-color="#DC3720"/>
</linearGradient>
</defs>
</svg>
