<svg width="18" height="20" viewBox="0 0 18 20" fill="none" xmlns="http://www.w3.org/2000/svg">
<path d="M7.52359 18.5061L7.52361 18.5061C7.91728 18.8893 8.44192 19.1 8.99993 19.1C9.5578 19.1 10.0824 18.8893 10.4761 18.5061L10.4761 18.5061L14.7266 14.368C16.2567 12.8784 17.1 10.8967 17.1 8.78876C17.1 6.68096 16.2566 4.69926 14.7266 3.20966C13.1967 1.72001 11.1625 0.9 9.00007 0.9C6.83745 0.9 4.8033 1.72015 3.2734 3.20966C1.74341 4.69926 0.9 6.68096 0.9 8.78876C0.9 10.8967 1.74341 12.8784 3.2734 14.368L7.52359 18.5061ZM13.8212 13.4789L9.57055 17.6171C9.4199 17.7638 9.21762 17.8453 8.99993 17.8453C8.78226 17.8453 8.57998 17.7638 8.42917 17.6171C8.42916 17.6171 8.42915 17.6171 8.42914 17.6171L4.17898 13.4789L4.17897 13.4789C2.89159 12.2256 2.18328 10.5601 2.18328 8.78876C2.18328 7.01742 2.89158 5.35207 4.17897 4.09866C5.46646 2.8453 7.1781 2.15469 9.00007 2.15469C10.8219 2.15469 12.5337 2.8453 13.8212 4.09866C16.4776 6.68514 16.4776 10.8927 13.8212 13.4789ZM9.00007 5.90208C7.369 5.90208 6.03769 7.19445 6.03769 8.78889C6.03769 10.3832 7.36901 11.6756 9.00007 11.6756C10.631 11.6756 11.9623 10.3832 11.9623 8.78889C11.9623 7.19445 10.631 5.90208 9.00007 5.90208ZM9.00007 10.4209C8.07174 10.4209 7.32098 9.68615 7.32098 8.78876C7.32098 7.89151 8.07174 7.15676 9.00007 7.15676C9.92826 7.15676 10.679 7.8915 10.679 8.78876C10.679 9.68615 9.92825 10.4209 9.00007 10.4209Z" fill="url(#paint0_linear_75_9698)" stroke="url(#paint1_linear_75_9698)" stroke-width="0.2"/>
<defs>
<linearGradient id="paint0_linear_75_9698" x1="1" y1="6.6" x2="17.0324" y2="6.77142" gradientUnits="userSpaceOnUse">
<stop stop-color="#FF6B00"/>
<stop offset="1" stop-color="#DC3720"/>
</linearGradient>
<linearGradient id="paint1_linear_75_9698" x1="1" y1="6.6" x2="17.0324" y2="6.77142" gradientUnits="userSpaceOnUse">
<stop stop-color="#FF6B00"/>
<stop offset="1" stop-color="#DC3720"/>
</linearGradient>
</defs>
</svg>
