<svg width="22" height="16" viewBox="0 0 22 16" fill="none" xmlns="http://www.w3.org/2000/svg">
<path d="M18.8736 13.7833L13.9333 8.89623L13.1058 9.71575C12.5441 10.2749 11.7957 10.5835 11 10.5835C10.2043 10.5835 9.45596 10.2749 8.89322 9.71475C8.89318 9.71472 8.89315 9.71469 8.89312 9.71466M18.8736 13.7833L8.9284 9.67922L8.89312 9.71466M18.8736 13.7833H3.12637L8.0667 8.89623M18.8736 13.7833L8.0667 8.89623M8.89312 9.71466L8.0667 8.89623M8.89312 9.71466L8.0667 8.89623M9.79112 8.81766L3.12553 2.21667H18.8745L12.2078 8.81875L12.2077 8.81884C11.8851 9.14004 11.4563 9.31683 11 9.31683C10.5437 9.31683 10.115 9.14002 9.79121 8.81775L9.79112 8.81766ZM19.2422 0.95H2.75781C1.75911 0.95 0.95 1.76023 0.95 2.75V13.25C0.95 14.2457 1.7651 15.05 2.75781 15.05H19.2422C20.2324 15.05 21.05 14.2491 21.05 13.25V2.75C21.05 1.76203 20.2441 0.95 19.2422 0.95ZM2.22187 12.8928V3.10808L7.16478 8.00309L2.22187 12.8928ZM19.7781 3.10808V12.8928L14.8352 8.00309L19.7781 3.10808Z" fill="url(#paint0_linear_75_9705)" stroke="url(#paint1_linear_75_9705)" stroke-width="0.1"/>
<defs>
<linearGradient id="paint0_linear_75_9705" x1="1" y1="5.35556" x2="21.0369" y2="5.69986" gradientUnits="userSpaceOnUse">
<stop stop-color="#FF6B00"/>
<stop offset="1" stop-color="#DC3720"/>
</linearGradient>
<linearGradient id="paint1_linear_75_9705" x1="1" y1="5.35556" x2="21.0369" y2="5.69986" gradientUnits="userSpaceOnUse">
<stop stop-color="#FF6B00"/>
<stop offset="1" stop-color="#DC3720"/>
</linearGradient>
</defs>
</svg>
