<svg width="32" height="32" viewBox="0 0 32 32" fill="none" xmlns="http://www.w3.org/2000/svg">
<circle cx="16" cy="16" r="16" fill="url(#paint0_linear_75_9713)"/>
<path d="M18.25 9.9H13.75C11.624 9.9 9.9 11.624 9.9 13.75V18.25C9.9 20.376 11.624 22.1 13.75 22.1H18.25C20.376 22.1 22.1 20.376 22.1 18.25V13.75C22.1 11.624 20.376 9.9 18.25 9.9ZM20.775 18.25C20.775 19.6423 19.6423 20.775 18.25 20.775H13.75C12.3577 20.775 11.225 19.6423 11.225 18.25V13.75C11.225 12.3577 12.3577 11.225 13.75 11.225H18.25C19.6423 11.225 20.775 12.3577 20.775 13.75V18.25ZM16 12.9C14.288 12.9 12.9 14.288 12.9 16C12.9 17.712 14.288 19.1 16 19.1C17.712 19.1 19.1 17.712 19.1 16C19.1 14.288 17.712 12.9 16 12.9ZM16 17.775C15.0217 17.775 14.225 16.9783 14.225 16C14.225 15.021 15.0217 14.225 16 14.225C16.9783 14.225 17.775 15.021 17.775 16C17.775 16.9783 16.9783 17.775 16 17.775ZM19.225 13.2748C19.501 13.2748 19.7248 13.0511 19.7248 12.775C19.7248 12.499 19.501 12.2753 19.225 12.2753C18.949 12.2753 18.7253 12.499 18.7253 12.775C18.7253 13.0511 18.949 13.2748 19.225 13.2748Z" fill="white" stroke="white" stroke-width="0.2"/>
<defs>
<linearGradient id="paint0_linear_75_9713" x1="-2.6942e-07" y1="9.95556" x2="32.0638" y2="10.3412" gradientUnits="userSpaceOnUse">
<stop stop-color="#FF6B00"/>
<stop offset="1" stop-color="#DC3720"/>
</linearGradient>
</defs>
</svg>
