<svg width="42" height="46" viewBox="0 0 42 46" fill="none" xmlns="http://www.w3.org/2000/svg">
<path d="M21.5 46L27.9952 39.25H15.0048L21.5 46Z" fill="url(#paint0_linear_75_9686)"/>
<circle cx="21" cy="21" r="21" fill="url(#paint1_linear_75_9686)"/>
<path d="M21.5577 25.0098C24.0565 25.0098 26.0821 22.9841 26.0821 20.4853C26.0821 17.9865 24.0565 15.9609 21.5577 15.9609C19.0589 15.9609 17.0332 17.9865 17.0332 20.4853C17.0332 22.9841 19.0589 25.0098 21.5577 25.0098Z" fill="white"/>
<path d="M26.8741 15.2021C25.454 13.7821 23.566 13 21.5577 13C19.5494 13 17.6613 13.7821 16.2412 15.2021C14.8211 16.6222 14.0391 18.5103 14.0391 20.5186C14.0391 24.0616 16.516 27.1204 19.957 27.8658L21.5577 30L23.1583 27.8658C26.5993 27.1204 29.0762 24.0616 29.0762 20.5186C29.0762 18.5103 28.2942 16.6222 26.8741 15.2021ZM21.5577 14.9628C24.6028 14.9628 27.0802 17.4402 27.0802 20.4853C27.0802 23.5304 24.6028 26.0078 21.5577 26.0078C18.5125 26.0078 16.0351 23.5304 16.0351 20.4853C16.0351 17.4402 18.5125 14.9628 21.5577 14.9628Z" fill="white"/>
<defs>
<linearGradient id="paint0_linear_75_9686" x1="14" y1="43.2" x2="29.026" y2="42.8988" gradientUnits="userSpaceOnUse">
<stop stop-color="#FF6B00"/>
<stop offset="1" stop-color="#DC3720"/>
</linearGradient>
<linearGradient id="paint1_linear_75_9686" x1="-3.53614e-07" y1="13.0667" x2="42.0837" y2="13.5729" gradientUnits="userSpaceOnUse">
<stop stop-color="#FF6B00"/>
<stop offset="1" stop-color="#DC3720"/>
</linearGradient>
</defs>
</svg>
