<svg width="18" height="17" viewBox="0 0 18 17" fill="none" xmlns="http://www.w3.org/2000/svg">
<path d="M12.556 10.906L12.101 11.359C12.101 11.359 11.018 12.435 8.063 9.49698C5.108 6.55898 6.191 5.48298 6.191 5.48298L6.477 5.19698C7.184 4.49498 7.251 3.36698 6.634 2.54298L5.374 0.859979C4.61 -0.160021 3.135 -0.29502 2.26 0.57498L0.690002 2.13498C0.257002 2.56698 -0.0329985 3.12498 0.00200151 3.74498C0.0920015 5.33198 0.810001 8.74498 4.814 12.727C9.061 16.949 13.046 17.117 14.675 16.965C15.191 16.917 15.639 16.655 16 16.295L17.42 14.883C18.38 13.93 18.11 12.295 16.882 11.628L14.972 10.589C14.166 10.152 13.186 10.28 12.556 10.906Z" fill="url(#paint0_linear_425_33)"/>
<defs>
<linearGradient id="paint0_linear_425_33" x1="-0.000854644" y1="5.28885" x2="18.0348" y2="5.51856" gradientUnits="userSpaceOnUse">
<stop stop-color="#FF6B00"/>
<stop offset="1" stop-color="#DC3720"/>
</linearGradient>
</defs>
</svg>
