<svg width="21" height="20" viewBox="0 0 21 20" fill="none" xmlns="http://www.w3.org/2000/svg">
<path d="M2.45064 0.899592V0.900026L6.59305 0.900039H6.5934L6.59339 1.00004C7.27087 0.995243 8.125 1.43255 8.21271 2.32593L2.45064 0.899592ZM2.45064 0.899592L2.44136 0.900457C1.60112 0.978771 0.916657 1.64403 0.900021 2.46451L0.899875 2.46451L0.900056 2.4699C1.0746 7.66408 2.73223 11.8582 5.75531 14.7331C8.77817 17.608 13.1114 19.109 18.475 19.1M2.45064 0.899592L9.01562 6.35047L9.11214 6.3243C9.11215 6.32436 9.11217 6.32442 9.11219 6.32448C9.18151 6.58039 9.10113 6.86825 8.90944 7.05208C8.90943 7.05209 8.90942 7.0521 8.90941 7.05211L6.92443 8.95715C7.66686 10.1091 8.31694 10.9509 9.07868 11.6836C9.84187 12.4176 10.7204 13.0453 11.9228 13.7656L13.925 11.8371C13.9251 11.8369 13.9253 11.8368 13.9254 11.8367C14.1062 11.6597 14.3792 11.5847 14.6256 11.6438L14.6262 11.644C14.6981 11.6617 14.7708 11.6797 14.8443 11.6979C16.0549 11.9974 17.4726 12.3482 18.5017 12.3442L18.503 12.3442C19.2616 12.3506 20.1 12.9351 20.1 13.8571V13.8578C20.0949 14.5814 20.0895 15.3065 20.0841 16.0316C20.0804 16.5304 20.0766 17.0292 20.073 17.5275L20.073 17.5289C20.0557 18.3177 19.4135 19.1039 18.475 19.1M18.475 19.1C18.4749 19.1 18.4748 19.1 18.4747 19.1L18.4751 19L18.4753 19.1C18.4752 19.1 18.4751 19.1 18.475 19.1ZM5.32752 9.24894L5.3277 9.24924C6.25279 10.7375 7.06133 11.8167 8.02665 12.7476C8.99189 13.6785 10.1102 14.4576 11.6509 15.3499L11.651 15.35C11.9313 15.5117 12.313 15.4656 12.5462 15.2417L12.5464 15.2415L14.6723 13.1842C14.7 13.1911 14.7278 13.1981 14.7557 13.2051C15.8957 13.4915 17.2532 13.8325 18.4966 13.8299C18.5117 13.8354 18.5364 13.852 18.5661 13.8822C18.5837 13.9 18.5952 13.9136 18.6043 13.9251L18.5777 17.5013C18.5676 17.5307 18.5633 17.5575 18.5604 17.5755L18.5598 17.5791C18.5577 17.5922 18.5562 17.5993 18.5553 17.6031C18.5541 17.6036 18.5526 17.6041 18.5506 17.6047C18.5336 17.61 18.4997 17.6152 18.4361 17.6142H18.4346C13.371 17.6142 9.47676 16.2121 6.79049 13.6574C4.09739 11.0962 2.56073 7.32715 2.39544 2.41799C2.39545 2.40623 2.39546 2.3964 2.39557 2.38779C2.41099 2.38695 2.4311 2.38641 2.45859 2.38574H2.4655H2.47363H2.48176H2.48988H2.49801H2.50614H2.51426H2.52239H2.53052H2.53865H2.54678H2.5549H2.56303H2.57116H2.57929H2.58741H2.59554H2.60367H2.6118H2.61993H2.62806H2.63619H2.64431H2.65244H2.66057H2.6687H2.67683H2.68496H2.69309H2.70122H2.70935H2.71748H2.72561H2.73374H2.74187H2.74999H2.75812H2.76625H2.77438H2.78251H2.79064H2.79877H2.80691H2.81504H2.82317H2.8313H2.83943H2.84756H2.85569H2.86382H2.87195H2.88008H2.88821H2.89634H2.90447H2.91261H2.92074H2.92887H2.937H2.94513H2.95326H2.96139H2.96953H2.97766H2.98579H2.99392H3.00205H3.01019H3.01832H3.02645H3.03458H3.04271H3.05085H3.05898H3.06711H3.07524H3.08338H3.09151H3.09964H3.10777H3.11591H3.12404H3.13217H3.1403H3.14844H3.15657H3.1647H3.17284H3.18097H3.1891H3.19724H3.20537H3.2135H3.22164H3.22977H3.2379H3.24604H3.25417H3.26231H3.27044H3.27857H3.28671H3.29484H3.30297H3.31111H3.31924H3.32738H3.33551H3.34364H3.35178H3.35991H3.36805H3.37618H3.38432H3.39245H3.40059H3.40872H3.41685H3.42499H3.43312H3.44126H3.44939H3.45753H3.46566H3.4738H3.48193H3.49007H3.4982H3.50634H3.51447H3.52261H3.53074H3.53888H3.54701H3.55515H3.56328H3.57142H3.57955H3.58769H3.59582H3.60396H3.61209H3.62023H3.62837H3.6365H3.64464H3.65277H3.66091H3.66904H3.67718H3.68531H3.69345H3.70159H3.70972H3.71786H3.72599H3.73413H3.74226H3.7504H3.75854H3.76667H3.77481H3.78294H3.79108H3.79922H3.80735H3.81549H3.82362H3.83176H3.8399H3.84803H3.85617H3.8643H3.87244H3.88058H3.88871H3.89685H3.90498H3.91312H3.92126H3.92939H3.93753H3.94566H3.9538H3.96194H3.97007H3.97821H3.98635H3.99448H4.00262H4.01075H4.01889H4.02703H4.03516H4.0433H4.05144H4.05957H4.06771H4.07584H4.08398H4.09212H4.10025H4.10839H4.11653H4.12466H4.1328H4.14094H4.14907H4.15721H4.16534H4.17348H4.18162H4.18975H4.19789H4.20603H4.21416H4.2223H4.23043H4.23857H4.24671H4.25484H4.26298H4.27112H4.27925H4.28739H4.29553H4.30366H4.3118H4.31993H4.32807H4.33621H4.34434H4.35248H4.36061H4.36875H4.37689H4.38502H4.39316H4.4013H4.40943H4.41757H4.4257H4.43384H4.44198H4.45011H4.45825H4.46638H4.47452H4.48266H4.49079H4.49893H4.50706H4.5152H4.52333H4.53147H4.53961H4.54774H4.55588H4.56401H4.57215H4.58028H4.58842H4.59656H4.60469H4.61283H4.62096H4.6291H4.63723H4.64537H4.6535H4.66164H4.66978H4.67791H4.68605H4.69418H4.70232H4.71045H4.71859H4.72672H4.73486H4.74299H4.75113H4.75926H4.7674H4.77553H4.78367H4.7918H4.79994H4.80807H4.81621H4.82434H4.83248H4.84061H4.84875H4.85688H4.86501H4.87315H4.88128H4.88942H4.89755H4.90569H4.91382H4.92196H4.93009H4.93822H4.94636H4.95449H4.96263H4.97076H4.97889H4.98703H4.99516H5.00329H5.01143H5.01956H5.0277H5.03583H5.04396H5.0521H5.06023H5.06836H5.0765H5.08463H5.09276H5.1009H5.10903H5.11716H5.1253H5.13343H5.14156H5.14969H5.15783H5.16596H5.17409H5.18223H5.19036H5.19849H5.20662H5.21476H5.22289H5.23102H5.23915H5.24728H5.25542H5.26355H5.27168H5.27981H5.28794H5.29608H5.30421H5.31234H5.32047H5.3286H5.33673H5.34487H5.353H5.36113H5.36926H5.37739H5.38552H5.39365H5.40178H5.40991H5.41804H5.42618H5.43431H5.44244H5.45057H5.4587H5.46683H5.47496H5.48309H5.49122H5.49935H5.50748H5.51561H5.52374H5.53187H5.54H5.54813H5.55626H5.56439H5.57252H5.58064H5.58877H5.5969H5.60503H5.61316H5.62129H5.62942H5.63755H5.64568H5.6538H5.66193H5.67006H5.67819H5.68632H5.69445H5.70257H5.7107H5.71883H5.72696H5.73509H5.74321H5.75134H5.75947H5.76759H5.77572H5.78385H5.79198H5.8001H5.80823H5.81636H5.82448H5.83261H5.84074H5.84886H5.85699H5.86512H5.87324H5.88137H5.88949H5.89762H5.90574H5.91387H5.922H5.93012H5.93825H5.94637H5.9545H5.96262H5.97075H5.97887H5.987H5.99512H6.00325H6.01137H6.01949H6.02762H6.03574H6.04387H6.05199H6.06011H6.06824H6.07636H6.08449H6.09261H6.10073H6.10885H6.11698H6.1251H6.13322H6.14135H6.14947H6.15759H6.16571H6.17384H6.18196H6.19008H6.1982H6.20632H6.21445H6.22257H6.23069H6.23881H6.24693H6.25505H6.26317H6.27129H6.27941H6.28754H6.29566H6.30378H6.3119H6.32002H6.32814H6.33626H6.34438H6.3525H6.36062H6.36873H6.37685H6.38497H6.39309H6.40121H6.40933H6.41745H6.42557H6.43369H6.4418H6.44992H6.45804H6.46616H6.47428H6.48239H6.49051H6.49863H6.50675H6.51486H6.52298H6.5311H6.53921H6.54733H6.55545H6.56356H6.57168H6.57979H6.58791H6.59603H6.60414H6.61226H6.61943C6.67309 2.38675 6.70652 2.3875 6.73158 2.39035C6.75519 2.39303 6.76136 2.39671 6.76301 2.39774C6.76491 2.39894 6.77143 2.4034 6.78522 2.42453C6.79728 2.44301 6.81081 2.4676 6.8301 2.50371C6.80068 3.7634 7.17453 5.03125 7.47359 6.04548C7.49853 6.13005 7.52294 6.21285 7.54656 6.29374L5.44444 8.32756C5.20165 8.56157 5.15065 8.96216 5.32752 9.24894Z" fill="url(#paint0_linear_75_9702)" stroke="url(#paint1_linear_75_9702)" stroke-width="0.2"/>
<defs>
<linearGradient id="paint0_linear_75_9702" x1="1" y1="6.6" x2="20.0376" y2="6.84172" gradientUnits="userSpaceOnUse">
<stop stop-color="#FF6B00"/>
<stop offset="1" stop-color="#DC3720"/>
</linearGradient>
<linearGradient id="paint1_linear_75_9702" x1="1" y1="6.6" x2="20.0376" y2="6.84172" gradientUnits="userSpaceOnUse">
<stop stop-color="#FF6B00"/>
<stop offset="1" stop-color="#DC3720"/>
</linearGradient>
</defs>
</svg>
