<svg width="18" height="21" viewBox="0 0 18 21" fill="none" xmlns="http://www.w3.org/2000/svg">
<path d="M9 0.795898C11.3869 0.795898 13.6761 1.74411 15.364 3.43194C17.0518 5.11976 18 7.40895 18 9.7959C18 12.8699 16.324 15.3859 14.558 17.1909C13.6755 18.0828 12.7128 18.8915 11.682 19.6069L11.256 19.8969L11.056 20.0299L10.679 20.2699L10.343 20.4749L9.927 20.7169C9.64451 20.8777 9.32505 20.9622 9 20.9622C8.67495 20.9622 8.35549 20.8777 8.073 20.7169L7.657 20.4749L7.137 20.1549L6.945 20.0299L6.535 19.7569C5.42298 19.0042 4.38707 18.1448 3.442 17.1909C1.676 15.3839 0 12.8699 0 9.7959C0 7.40895 0.948211 5.11976 2.63604 3.43194C4.32387 1.74411 6.61305 0.795898 9 0.795898ZM9 6.7959C8.60603 6.7959 8.21593 6.8735 7.85195 7.02426C7.48797 7.17502 7.15726 7.396 6.87868 7.67458C6.6001 7.95315 6.37913 8.28387 6.22836 8.64785C6.0776 9.01182 6 9.40193 6 9.7959C6 10.1899 6.0776 10.58 6.22836 10.9439C6.37913 11.3079 6.6001 11.6386 6.87868 11.9172C7.15726 12.1958 7.48797 12.4168 7.85195 12.5675C8.21593 12.7183 8.60603 12.7959 9 12.7959C9.79565 12.7959 10.5587 12.4798 11.1213 11.9172C11.6839 11.3546 12 10.5915 12 9.7959C12 9.00025 11.6839 8.23719 11.1213 7.67458C10.5587 7.11197 9.79565 6.7959 9 6.7959Z" fill="#FF6B00"/>
</svg>
