<svg width="32" height="32" viewBox="0 0 32 32" fill="none" xmlns="http://www.w3.org/2000/svg">
<circle cx="16" cy="16" r="16" fill="url(#paint0_linear_75_9708)"/>
<path d="M22.8959 19.1355C22.8583 19.0724 22.6251 18.5659 21.5034 17.5247C20.3291 16.4345 20.4868 16.6115 21.9013 14.7265C22.7627 13.5784 23.1072 12.8773 22.9994 12.5776C22.8968 12.2919 22.2632 12.3673 22.2632 12.3673L20.1564 12.3795C20.1564 12.3795 20.0004 12.3585 19.8839 12.4277C19.7708 12.4961 19.6981 12.6538 19.6981 12.6538C19.6981 12.6538 19.3642 13.5425 18.919 14.2979C17.9804 15.892 17.6044 15.9762 17.451 15.8771C17.0944 15.6467 17.1838 14.9499 17.1838 14.4557C17.1838 12.9106 17.4177 12.2665 16.7272 12.1C16.4976 12.0448 16.3293 12.008 15.743 12.0018C14.9911 11.9939 14.354 12.0045 13.9938 12.1806C13.7536 12.298 13.5687 12.5601 13.6818 12.575C13.8211 12.5934 14.1366 12.66 14.304 12.8878C14.5205 13.1814 14.5126 13.8422 14.5126 13.8422C14.5126 13.8422 14.637 15.6607 14.2225 15.8868C13.9377 16.0419 13.5477 15.7255 12.7108 14.2786C12.2822 13.5381 11.958 12.7187 11.958 12.7187C11.958 12.7187 11.8957 12.5662 11.7844 12.4847C11.6495 12.3857 11.4602 12.3541 11.4602 12.3541L9.45679 12.3664C9.45679 12.3664 9.15619 12.3752 9.04577 12.5057C8.94761 12.6223 9.03788 12.8624 9.03788 12.8624C9.03788 12.8624 10.6066 16.5318 12.3821 18.3818C14.0113 20.0776 15.8604 19.9663 15.8604 19.9663H16.6982C16.6982 19.9663 16.9515 19.9383 17.0803 19.7989C17.1995 19.671 17.1951 19.4308 17.1951 19.4308C17.1951 19.4308 17.1785 18.3064 17.7008 18.1408C18.2152 17.9778 18.876 19.2275 19.5763 19.7086C20.1056 20.0723 20.5078 19.9926 20.5078 19.9926L22.3806 19.9663C22.3806 19.9663 23.3604 19.9058 22.8959 19.1355Z" fill="white"/>
<defs>
<linearGradient id="paint0_linear_75_9708" x1="-2.6942e-07" y1="9.95556" x2="32.0638" y2="10.3412" gradientUnits="userSpaceOnUse">
<stop stop-color="#FF6B00"/>
<stop offset="1" stop-color="#DC3720"/>
</linearGradient>
</defs>
</svg>
