<svg width="20" height="20" viewBox="0 0 20 20" fill="none" xmlns="http://www.w3.org/2000/svg">
<path d="M10.001 0C15.524 0 20.001 4.477 20.001 10C20.001 15.523 15.524 20 10.001 20C8.23378 20.0029 6.49766 19.5352 4.971 18.645L0.00500017 20L1.357 15.032C0.466093 13.5049 -0.00195228 11.768 0.000999979 10C0.000999979 4.477 4.478 0 10.001 0ZM6.593 5.3L6.393 5.308C6.26352 5.31589 6.13698 5.3499 6.021 5.408C5.91252 5.46943 5.8135 5.54622 5.727 5.636C5.607 5.749 5.539 5.847 5.466 5.942C5.09612 6.4229 4.89697 7.01331 4.9 7.62C4.902 8.11 5.03 8.587 5.23 9.033C5.639 9.935 6.312 10.89 7.2 11.775C7.414 11.988 7.624 12.202 7.85 12.401C8.95339 13.3725 10.2683 14.073 11.69 14.447L12.258 14.534C12.443 14.544 12.628 14.53 12.814 14.521C13.1052 14.506 13.3896 14.4271 13.647 14.29C13.778 14.2225 13.9058 14.1491 14.03 14.07C14.03 14.07 14.073 14.042 14.155 13.98C14.29 13.88 14.373 13.809 14.485 13.692C14.568 13.606 14.64 13.505 14.695 13.39C14.773 13.227 14.851 12.916 14.883 12.657C14.907 12.459 14.9 12.351 14.897 12.284C14.893 12.177 14.804 12.066 14.707 12.019L14.125 11.758C14.125 11.758 13.255 11.379 12.723 11.137C12.6673 11.1127 12.6077 11.0988 12.547 11.096C12.4786 11.089 12.4094 11.0967 12.3443 11.1186C12.2791 11.1405 12.2193 11.1761 12.169 11.223C12.164 11.221 12.097 11.278 11.374 12.154C11.3325 12.2098 11.2753 12.2519 11.2098 12.2751C11.1443 12.2982 11.0733 12.3013 11.006 12.284C10.9409 12.2665 10.877 12.2445 10.815 12.218C10.691 12.166 10.648 12.146 10.563 12.11C9.98907 11.8595 9.45769 11.5211 8.988 11.107C8.862 10.997 8.745 10.877 8.625 10.761C8.23159 10.3842 7.88872 9.95801 7.605 9.493L7.546 9.398C7.50362 9.33416 7.46936 9.2653 7.444 9.193C7.406 9.046 7.505 8.928 7.505 8.928C7.505 8.928 7.748 8.662 7.861 8.518C7.971 8.378 8.064 8.242 8.124 8.145C8.242 7.955 8.279 7.76 8.217 7.609C7.937 6.925 7.647 6.244 7.349 5.568C7.29 5.434 7.115 5.338 6.956 5.319C6.902 5.313 6.848 5.307 6.794 5.303C6.65971 5.29633 6.52513 5.29766 6.391 5.307L6.592 5.299L6.593 5.3Z" fill="url(#paint0_linear_425_31)"/>
<defs>
<linearGradient id="paint0_linear_425_31" x1="0.000985931" y1="6.22223" x2="20.0409" y2="6.46328" gradientUnits="userSpaceOnUse">
<stop stop-color="#FF6B00"/>
<stop offset="1" stop-color="#DC3720"/>
</linearGradient>
</defs>
</svg>
